# xmcd
#
# Track frame offsets: 
#        150
#        17457
#        35300
#        47902
#        63751
#        82999
#        99380
#        114912
#        129544
#        147015
#        164309
#        176925
#        192728
#        211983
#        228388
#        243838
#        258470
#        282980
#        306093
#        336863
#
# Disc length: 4795 seconds
#
# Revision: 0
# Processed by: cddbd v1.5.2PL0 Copyright (c) Steve Scherf et al.
# Submitted via: ExactAudioCopy v1.3
#
DISCID=1412b914
DTITLE=Sound Attack - 24-7
DYEAR=2003
DGENRE=Disco
TTITLE0=Zakaj ne poklices
TTITLE1=Svet vrti se
TTITLE2=Poletiva do neba
TTITLE3=Konec je prepozno za vse
TTITLE4=Daj da spet cutim tvoj poljub
TTITLE5=Vsako noc vsak dan
TTITLE6=Kaj pa poljub
TTITLE7=Konec je poletja
TTITLE8=24-7
TTITLE9=Stand Up
TTITLE10=Inside out
TTITLE11=Give it up
TTITLE12=I can't love you anymore
TTITLE13=All nite all day
TTITLE14=Just for one kiss
TTITLE15=I love you the way you love me
TTITLE16=All nite all day remix
TTITLE17=24-7 Shark Fotr
TTITLE18=Stand up groove
TTITLE19=Krneki
EXTD=
EXTT0=
EXTT1=
EXTT2=
EXTT3=
EXTT4=
EXTT5=
EXTT6=
EXTT7=
EXTT8=
EXTT9=
EXTT10=
EXTT11=
EXTT12=
EXTT13=
EXTT14=
EXTT15=
EXTT16=
EXTT17=
EXTT18=
EXTT19=
PLAYORDER=
